<svg viewBox="0 0 240 240" xmlns="http://www.w3.org/2000/svg" color="#f1f6ff">
  <defs><filter id="g" x="-50%" y="-50%" width="200%" height="200%">
<feGaussianBlur stdDeviation="2.4" result="a"/><feGaussianBlur stdDeviation="6" result="b"/>
<feMerge><feMergeNode in="b"/><feMergeNode in="a"/><feMergeNode in="SourceGraphic"/></feMerge></filter></defs>
  <g filter="url(#g)" stroke="#f1f6ff" stroke-width="3.2" stroke-linecap="round" stroke-linejoin="round" fill="none">
      <path d="M120,58 C150,66 162,108 152,150 C146,176 132,188 120,188 C108,188 96,178 92,158" fill="none"/>
      <path d="M120,58 C98,66 86,96 90,126" fill="none"/>
      <path d="M92,158 C104,150 134,150 150,160 C140,176 110,178 96,170 Z" fill="none"/>
      <path d="M123.1,94.8 L122.9,95.0 L122.7,95.2 L122.4,95.4 L122.1,95.5 L121.8,95.6 L121.5,95.7 L121.2,95.8 L120.8,95.8 L120.5,95.8 L120.1,95.8 L119.7,95.7 L119.3,95.6 L119.0,95.5 L118.6,95.3 L118.2,95.1 L117.9,94.8 L117.5,94.5 L117.2,94.2 L117.0,93.8 L116.7,93.4 L116.5,93.0 L116.3,92.6 L116.1,92.1 L116.0,91.6 L115.9,91.1 L115.9,90.5 L115.9,90.0 L116.0,89.4 L116.1,88.9 L116.3,88.3 L116.5,87.8 L116.8,87.3 L117.2,86.8 L117.5,86.3 L118.0,85.8 L118.4,85.4 L118.9,85.0 L119.5,84.7 L120.1,84.4 L120.7,84.1 L121.4,83.9 L122.1,83.8 L122.8,83.7 L123.5,83.6 L124.2,83.7 L124.9,83.8 L125.7,83.9 L126.4,84.1 L127.1,84.4 L127.8,84.8 L128.5,85.2 L129.1,85.7 L129.7,86.2 L130.3,86.8 L130.8,87.5 L131.2,88.2 L131.6,88.9 L132.0,89.7 L132.3,90.5 L132.5,91.4 L132.6,92.3 L132.7,93.2 L132.7,94.1 L132.6,95.0 L132.4,95.9 L132.1,96.9 L131.8,97.7 L131.4,98.6 L130.9,99.5 L130.3,100.3 L129.7,101.0 L129.0,101.8 L128.2,102.4 L127.4,103.0 L126.5,103.5 L125.5,104.0 L124.5,104.4 L123.5,104.7 L122.5,104.9 L121.4,105.0 L120.3,105.0 L119.2,104.9 L118.1,104.8 L117.0,104.5 L115.9,104.2 L114.8,103.7 L113.8,103.2 L112.8,102.5 L111.8,101.8 L111.0,101.0 L110.1,100.1 L109.4,99.2 L108.7,98.1 L108.1,97.1 L107.6,95.9 L107.2,94.7 L106.9,93.5 L106.8,92.2 L106.7,90.9 L106.7,89.6 L106.8,88.3 L107.1,87.0 L107.4,85.8 L107.9,84.5 L108.4,83.3 L109.1,82.1 L109.9,81.0 L110.8,79.9 L111.8,78.9 L112.8,78.0 L114.0,77.2 L115.2,76.4 L116.5,75.8 L117.8,75.3 L119.2,74.9 L120.6,74.6 L122.1,74.4 L123.6,74.3 L125.1,74.4 L126.6,74.6" fill="none"/>
      <path d="M104,120 C120,116 138,120 148,132" fill="none"/>
      <path d="M100,140 C118,136 136,140 150,150" fill="none"/>
  </g>
</svg>